# xmcd
#
# Track frame offsets:
#	150
#	10800
#	22825
#	30195
#	42180
#	54705
#	66087
#	80442
#	90675
#	103982
#	118922
#	131122
#	142157
#	154322
#	166152
#	179417
#	191765
#	203217
#	212752
#	226537
#	237652
#	250759
#	261005
#	273377
#	288865
#	303790
#	314367
#
# Disc length: 4389 seconds
#
# Revision: 2
# Processed by: cddbd v1.5.1PL0 Copyright (c) Steve Scherf et al.
# Submitted via: EasyCDDAExtractor 5.1.0
#
DISCID=7c11231b
DTITLE=Various Artist - Anthologie de la chanson française_L'esprit Montmartr
DTITLE=ois
DYEAR=1900
DGENRE=Chanson
TTITLE0=Henri Fursy - Chanson de l'APGA_1908
TTITLE1=Lucien Boyer - Vive l'express de normandie_1911
TTITLE2=Henri Fursy - Deplacement ministeriels_1902
TTITLE3=Ainé Mevisto - Le tour du propriétaire_1920
TTITLE4=Henri Fursy - Suffrage universel_1818
TTITLE5=Gabriel Montoya - Les veuves du Luxembourg_1892
TTITLE6=Gabriel Montoya - Mimi_1892
TTITLE7=Xavier Privas - La Révolte_1901
TTITLE8=Mercadier - La chanson des heures_1899
TTITLE9=Xavier Privas - La ronde des heures_1905
TTITLE10=Yvette Guilbert - Quatre Z'étudiants_1890
TTITLE11=Odette Dulac - Les petites bonnes d'hotel_1899
TTITLE12=Yvette Guilbert - Hotel du numéro 3_1890
TTITLE13=Victor Lejal - Un bal chez le ministre_1895
TTITLE14=Yvette Guilbert - La pierreuse
TTITLE15=Perval - Les mioches
TTITLE16=Yvette Guilbert - La soudarde
TTITLE17=Kam Hill - L'homnibus de la prefecture
TTITLE18=Fursy - Un Bal à l'hotel de ville
TTITLE19=Buffalo - Le chat noir
TTITLE20=Aristide Bruant - Dans la rue
TTITLE21=Yvette Guillbert - A la villette
TTITLE22=Aristide Bruant - A la goutte d'or
TTITLE23=Robert Casa - Mariage démocratique
TTITLE24=Paul Lack - Lettre ouverte à Meg
TTITLE25=Yvette Guilbert - Si tu savais ma chère
TTITLE26=Robert casa - Les lanciers du carrefour
EXTD=
EXTT0=
EXTT1=
EXTT2=
EXTT3=
EXTT4=
EXTT5=
EXTT6=
EXTT7=
EXTT8=
EXTT9=
EXTT10=
EXTT11=
EXTT12=
EXTT13=
EXTT14=
EXTT15=
EXTT16=
EXTT17=
EXTT18=
EXTT19=
EXTT20=
EXTT21=
EXTT22=
EXTT23=
EXTT24=
EXTT25=
EXTT26=
PLAYORDER=
